<?xml version="1.0" encoding="UTF-8" standalone="no"?>
<!-- Created with Inkscape (http://www.inkscape.org/) -->

<svg
   xmlns:dc="http://purl.org/dc/elements/1.1/"
   xmlns:cc="http://creativecommons.org/ns#"
   xmlns:rdf="http://www.w3.org/1999/02/22-rdf-syntax-ns#"
   xmlns:svg="http://www.w3.org/2000/svg"
   xmlns="http://www.w3.org/2000/svg"
   xmlns:sodipodi="http://sodipodi.sourceforge.net/DTD/sodipodi-0.dtd"
   xmlns:inkscape="http://www.inkscape.org/namespaces/inkscape"
   width="322.49677"
   height="337.67487"
   id="svg2370"
   sodipodi:version="0.32"
   inkscape:version="0.91 r13725"
   sodipodi:docname="Hypercubecentral.svg"
   version="1.1">
  <defs
     id="defs3">
    <inkscape:path-effect
       effect="spiro"
       id="path-effect4171"
       is_visible="true" />
  </defs>
  <sodipodi:namedview
     inkscape:document-units="mm"
     id="base"
     pagecolor="#ffffff"
     bordercolor="#666666"
     borderopacity="1.0"
     inkscape:pageopacity="0.0"
     inkscape:pageshadow="2"
     inkscape:zoom="1.0280422"
     inkscape:cx="134.28166"
     inkscape:cy="181.15988"
     inkscape:current-layer="layer2"
     inkscape:window-width="1366"
     inkscape:window-height="706"
     inkscape:window-x="-8"
     inkscape:window-y="-8"
     showgrid="false"
     inkscape:grid-points="false"
     showguides="true"
     inkscape:guide-bbox="true"
     inkscape:grid-bbox="false"
     inkscape:snap-object-midpoints="true"
     inkscape:window-maximized="1"
     fit-margin-top="0"
     fit-margin-left="0"
     fit-margin-right="0"
     fit-margin-bottom="0"
     units="px" />
  <metadata
     id="metadata4">
    <rdf:RDF>
      <cc:Work
         rdf:about="">
        <dc:format>image/svg+xml</dc:format>
        <dc:type
           rdf:resource="http://purl.org/dc/dcmitype/StillImage" />
        <dc:title></dc:title>
      </cc:Work>
    </rdf:RDF>
  </metadata>
  <g
     inkscape:groupmode="layer"
     id="layer2"
     inkscape:label="edges"
     transform="translate(5.5340867,5.9150732)"
     sodipodi:insensitive="true">
    <path
       style="opacity:1;fill:none;fill-opacity:1;stroke:#666666;stroke-width:1.20000005;stroke-linecap:butt;stroke-linejoin:miter;stroke-miterlimit:4;stroke-dasharray:none;stroke-dashoffset:0;stroke-opacity:1;paint-order:markers fill stroke"
       d="M 29.064928,200.51439 82.50856,175.91786"
       id="path1023"
       inkscape:connector-curvature="0" />
    <path
       style="opacity:1;fill:none;fill-opacity:1;stroke:#666666;stroke-width:1.20000005;stroke-linecap:butt;stroke-linejoin:miter;stroke-miterlimit:4;stroke-dasharray:none;stroke-dashoffset:0;stroke-opacity:1;paint-order:markers fill stroke"
       d="m 213.95901,201.89516 64.12781,46.77229"
       id="path1021"
       inkscape:connector-curvature="0" />
    <path
       style="opacity:1;fill:none;fill-opacity:1;stroke:#666666;stroke-width:1.20000005;stroke-linecap:butt;stroke-linejoin:miter;stroke-miterlimit:4;stroke-dasharray:none;stroke-dashoffset:0;stroke-opacity:1;paint-order:markers fill stroke"
       d="M 218.3522,123.50089 303.30072,88.047714"
       id="path1017"
       inkscape:connector-curvature="0" />
    <path
       style="opacity:1;fill:none;fill-opacity:1;stroke:#000000;stroke-width:1.70000005;stroke-linecap:butt;stroke-linejoin:miter;stroke-miterlimit:4;stroke-dasharray:none;stroke-dashoffset:0;stroke-opacity:1;paint-order:markers fill stroke"
       d="m 185.21321,7.601016 -3.8306,144.753694 96.70421,96.31274 25.2139,-160.619736 z"
       id="path989"
       inkscape:connector-curvature="0" />
    <path
       style="opacity:1;fill:none;fill-opacity:1;stroke:#000000;stroke-width:1.70000005;stroke-linecap:butt;stroke-linejoin:miter;stroke-miterlimit:4;stroke-dasharray:none;stroke-dashoffset:0;stroke-opacity:1;paint-order:markers fill stroke"
       d="M 8.2430277,47.853317 185.21321,7.601016 l 0,0"
       id="path991"
       inkscape:connector-curvature="0" />
    <path
       style="opacity:1;fill:none;fill-opacity:1;stroke:#000000;stroke-width:1.70000005;stroke-linecap:butt;stroke-linejoin:miter;stroke-miterlimit:4;stroke-dasharray:none;stroke-dashoffset:0;stroke-opacity:1;paint-order:markers fill stroke"
       d="M 29.064928,200.51439 181.38261,152.35471"
       id="path993"
       inkscape:connector-curvature="0" />
    <path
       style="opacity:1;fill:none;fill-opacity:1;stroke:#000000;stroke-width:1.70000005;stroke-linecap:butt;stroke-linejoin:miter;stroke-miterlimit:4;stroke-dasharray:none;stroke-dashoffset:0;stroke-opacity:1;paint-order:markers fill stroke"
       d="m 104.81852,318.22522 173.2683,-69.55777"
       id="path995"
       inkscape:connector-curvature="0" />
    <path
       style="opacity:1;fill:none;fill-opacity:1;stroke:#666666;stroke-width:1;stroke-linecap:butt;stroke-linejoin:miter;stroke-miterlimit:4;stroke-dasharray:none;stroke-dashoffset:0;stroke-opacity:1;paint-order:markers fill stroke"
       d="m 79.963928,100.55785 45.149022,51.04359 2.05352,80.30081 -44.65791,-55.98439 z"
       id="path1001"
       inkscape:connector-curvature="0" />
    <path
       style="opacity:1;fill:none;fill-opacity:1;stroke:#666666;stroke-width:1;stroke-linecap:butt;stroke-linejoin:miter;stroke-miterlimit:4;stroke-dasharray:none;stroke-dashoffset:0;stroke-opacity:1;paint-order:markers fill stroke"
       d="m 166.27121,77.569916 -0.8205,73.505704 48.5083,50.81954 4.39319,-78.39427 z"
       id="path1003"
       inkscape:connector-curvature="0" />
    <path
       style="opacity:1;fill:none;fill-opacity:1;stroke:#666666;stroke-width:1;stroke-linecap:butt;stroke-linejoin:miter;stroke-miterlimit:4;stroke-dasharray:none;stroke-dashoffset:0;stroke-opacity:1;paint-order:markers fill stroke"
       d="M 79.963928,100.55785 166.27121,77.569916"
       id="path1005"
       inkscape:connector-curvature="0" />
    <path
       style="opacity:1;fill:none;fill-opacity:1;stroke:#666666;stroke-width:1;stroke-linecap:butt;stroke-linejoin:miter;stroke-miterlimit:4;stroke-dasharray:none;stroke-dashoffset:0;stroke-opacity:1;paint-order:markers fill stroke"
       d="M 125.11295,151.60144 218.3522,123.50089"
       id="path1007"
       inkscape:connector-curvature="0" />
    <path
       style="opacity:1;fill:none;fill-opacity:1;stroke:#666666;stroke-width:1;stroke-linecap:butt;stroke-linejoin:miter;stroke-miterlimit:4;stroke-dasharray:none;stroke-dashoffset:0;stroke-opacity:1;paint-order:markers fill stroke"
       d="m 127.16647,231.90225 86.79254,-30.00709"
       id="path1009"
       inkscape:connector-curvature="0" />
    <path
       style="opacity:1;fill:none;fill-opacity:1;stroke:#666666;stroke-width:1;stroke-linecap:butt;stroke-linejoin:miter;stroke-miterlimit:4;stroke-dasharray:none;stroke-dashoffset:0;stroke-opacity:1;paint-order:markers fill stroke"
       d="m 82.50856,175.91786 82.94215,-24.84224"
       id="path1011"
       inkscape:connector-curvature="0" />
    <path
       style="opacity:1;fill:none;fill-opacity:1;stroke:#000000;stroke-width:1.70000005;stroke-linecap:butt;stroke-linejoin:miter;stroke-miterlimit:4;stroke-dasharray:none;stroke-dashoffset:0;stroke-opacity:1;paint-order:markers fill stroke"
       d="M 8.2430277,47.853317 29.064928,200.51439 104.81852,318.22522 95.306091,151.36891 8.2430277,47.853317 l 0,0"
       id="path987"
       inkscape:connector-curvature="0" />
    <path
       style="opacity:1;fill:none;fill-opacity:1;stroke:#666666;stroke-width:1.20000005;stroke-linecap:butt;stroke-linejoin:miter;stroke-miterlimit:4;stroke-dasharray:none;stroke-dashoffset:0;stroke-opacity:1;paint-order:markers fill stroke"
       d="M 8.2430277,47.853317 79.963928,100.55785"
       id="path1013"
       inkscape:connector-curvature="0" />
    <path
       style="opacity:1;fill:none;fill-opacity:1;stroke:#666666;stroke-width:1.20000005;stroke-linecap:butt;stroke-linejoin:miter;stroke-miterlimit:4;stroke-dasharray:none;stroke-dashoffset:0;stroke-opacity:1;paint-order:markers fill stroke"
       d="m 166.27121,77.569916 18.942,-69.9689"
       id="path1015"
       inkscape:connector-curvature="0" />
    <path
       style="opacity:1;fill:none;fill-opacity:1;stroke:#666666;stroke-width:1.20000005;stroke-linecap:butt;stroke-linejoin:miter;stroke-miterlimit:4;stroke-dasharray:none;stroke-dashoffset:0;stroke-opacity:1;paint-order:markers fill stroke"
       d="m 104.81852,318.22522 22.34795,-86.32297"
       id="path1019"
       inkscape:connector-curvature="0" />
    <path
       style="opacity:1;fill:none;fill-opacity:1;stroke:#666666;stroke-width:1.20000005;stroke-linecap:butt;stroke-linejoin:miter;stroke-miterlimit:4;stroke-dasharray:none;stroke-dashoffset:0;stroke-opacity:1;paint-order:markers fill stroke"
       d="m 165.45071,151.07562 15.9319,1.27909"
       id="path1025"
       inkscape:connector-curvature="0" />
    <path
       style="opacity:1;fill:none;fill-opacity:1;stroke:#000000;stroke-width:1.70000005;stroke-linecap:butt;stroke-linejoin:miter;stroke-miterlimit:4;stroke-dasharray:none;stroke-dashoffset:0;stroke-opacity:1;paint-order:markers fill stroke"
       d="M 95.306091,151.36891 303.30072,88.047714"
       id="path997"
       inkscape:connector-curvature="0" />
    <path
       style="color:#000000;clip-rule:nonzero;display:inline;overflow:visible;visibility:visible;opacity:1;isolation:auto;mix-blend-mode:normal;color-interpolation:sRGB;color-interpolation-filters:linearRGB;solid-color:#000000;solid-opacity:1;fill:none;fill-opacity:1;fill-rule:nonzero;stroke:#666666;stroke-width:1;stroke-linecap:butt;stroke-linejoin:miter;stroke-miterlimit:4;stroke-dasharray:none;stroke-dashoffset:0;stroke-opacity:1;paint-order:markers fill stroke;color-rendering:auto;image-rendering:auto;shape-rendering:auto;text-rendering:auto;enable-background:accumulate"
       d="m 95.306093,151.36891 29.806857,0.23253"
       id="path4169"
       inkscape:path-effect="#path-effect4171"
       inkscape:original-d="m 95.306093,151.36891 29.806857,0.23253"
       inkscape:connector-curvature="0" />
  </g>
  <g
     inkscape:label="vertices"
     inkscape:groupmode="layer"
     id="layer1"
     style="display:inline"
     transform="translate(5.5340867,5.9150732)"
     sodipodi:insensitive="true">
    <path
       sodipodi:type="arc"
       style="opacity:1;fill:#c0c0ff;fill-opacity:1;fill-rule:nonzero;stroke:#000000;stroke-width:1.70000005;stroke-linejoin:miter;stroke-miterlimit:4;stroke-dasharray:none;stroke-opacity:1"
       id="path1597"
       sodipodi:cx="104.81852"
       sodipodi:cy="318.22522"
       sodipodi:rx="6.7808862"
       sodipodi:ry="6.5004234"
       d="m 111.59941,318.22522 a 6.7808862,6.5004234 0 0 1 -6.77594,6.50042 6.7808862,6.5004234 0 0 1 -6.785829,-6.49093 6.7808862,6.5004234 0 0 1 6.766019,-6.5099 6.7808862,6.5004234 0 0 1 6.79572,6.48142"
       sodipodi:start="0"
       sodipodi:end="6.2802644"
       sodipodi:open="true" />
    <path
       sodipodi:type="arc"
       style="opacity:1;fill:#ffffff;fill-opacity:1;fill-rule:nonzero;stroke:#000000;stroke-width:1.70000005;stroke-linejoin:miter;stroke-miterlimit:4;stroke-dasharray:none;stroke-opacity:1"
       id="path1599"
       sodipodi:cx="278.08682"
       sodipodi:cy="248.66745"
       sodipodi:rx="6.7808862"
       sodipodi:ry="6.5004234"
       d="m 284.86771,248.66745 a 6.7808862,6.5004234 0 0 1 -6.77594,6.50042 6.7808862,6.5004234 0 0 1 -6.78583,-6.49093 6.7808862,6.5004234 0 0 1 6.76603,-6.5099 6.7808862,6.5004234 0 0 1 6.79571,6.48142"
       sodipodi:start="0"
       sodipodi:end="6.2802644"
       sodipodi:open="true" />
    <path
       sodipodi:type="arc"
       style="opacity:1;fill:#ffffff;fill-opacity:1;fill-rule:nonzero;stroke:#000000;stroke-width:1.70000005;stroke-linejoin:miter;stroke-miterlimit:4;stroke-dasharray:none;stroke-opacity:1"
       id="path1601"
       sodipodi:cx="29.064928"
       sodipodi:cy="200.51439"
       sodipodi:rx="6.7808862"
       sodipodi:ry="6.5004234"
       d="m 35.845814,200.51439 a 6.7808862,6.5004234 0 0 1 -6.775934,6.50042 6.7808862,6.5004234 0 0 1 -6.785831,-6.49093 6.7808862,6.5004234 0 0 1 6.766024,-6.5099 6.7808862,6.5004234 0 0 1 6.795712,6.48142"
       sodipodi:start="0"
       sodipodi:end="6.2802644"
       sodipodi:open="true" />
    <path
       sodipodi:type="arc"
       style="opacity:1;fill:#e1e1ff;fill-opacity:1;fill-rule:nonzero;stroke:#000000;stroke-width:1.70000005;stroke-linejoin:miter;stroke-miterlimit:4;stroke-dasharray:none;stroke-opacity:1"
       id="path1603"
       sodipodi:cx="181.38261"
       sodipodi:cy="152.35471"
       sodipodi:rx="6.7808862"
       sodipodi:ry="6.5004234"
       d="m 188.1635,152.35471 a 6.7808862,6.5004234 0 0 1 -6.77593,6.50042 6.7808862,6.5004234 0 0 1 -6.78583,-6.49093 6.7808862,6.5004234 0 0 1 6.76602,-6.5099 6.7808862,6.5004234 0 0 1 6.79571,6.48142"
       sodipodi:start="0"
       sodipodi:end="6.2802644"
       sodipodi:open="true" />
    <path
       sodipodi:type="arc"
       style="opacity:1;fill:#ffffff;fill-opacity:1;fill-rule:nonzero;stroke:#000000;stroke-width:1.70000005;stroke-linejoin:miter;stroke-miterlimit:4;stroke-dasharray:none;stroke-opacity:1"
       id="path1605"
       sodipodi:cx="95.306091"
       sodipodi:cy="151.36891"
       sodipodi:rx="6.7808862"
       sodipodi:ry="6.5004234"
       d="m 102.08698,151.36891 a 6.7808862,6.5004234 0 0 1 -6.775937,6.50042 6.7808862,6.5004234 0 0 1 -6.785831,-6.49092 6.7808862,6.5004234 0 0 1 6.766025,-6.50991 6.7808862,6.5004234 0 0 1 6.795713,6.48142"
       sodipodi:start="0"
       sodipodi:end="6.2802644"
       sodipodi:open="true" />
    <path
       sodipodi:type="arc"
       style="opacity:1;fill:#e1e1ff;fill-opacity:1;fill-rule:nonzero;stroke:#000000;stroke-width:1.70000005;stroke-linejoin:miter;stroke-miterlimit:4;stroke-dasharray:none;stroke-opacity:1"
       id="path1607"
       sodipodi:cx="303.30072"
       sodipodi:cy="88.047714"
       sodipodi:rx="6.7808862"
       sodipodi:ry="6.5004234"
       d="m 310.08161,88.047714 a 6.7808862,6.5004234 0 0 1 -6.77594,6.500422 6.7808862,6.5004234 0 0 1 -6.78583,-6.490928 6.7808862,6.5004234 0 0 1 6.76603,-6.509902 6.7808862,6.5004234 0 0 1 6.79571,6.481421"
       sodipodi:start="0"
       sodipodi:end="6.2802644"
       sodipodi:open="true" />
    <path
       sodipodi:type="arc"
       style="opacity:1;fill:#e1ffe1;fill-opacity:1;fill-rule:nonzero;stroke:#000000;stroke-width:1.70000005;stroke-linejoin:miter;stroke-miterlimit:4;stroke-dasharray:none;stroke-opacity:1"
       id="path1609"
       sodipodi:cx="8.2430277"
       sodipodi:cy="47.853317"
       sodipodi:rx="6.7808862"
       sodipodi:ry="6.5004234"
       d="M 15.023914,47.853317 A 6.7808862,6.5004234 0 0 1 8.2479793,54.353739 6.7808862,6.5004234 0 0 1 1.4621487,47.862811 6.7808862,6.5004234 0 0 1 8.2281729,41.352909 6.7808862,6.5004234 0 0 1 15.023885,47.83433"
       sodipodi:start="0"
       sodipodi:end="6.2802644"
       sodipodi:open="true" />
    <path
       sodipodi:type="arc"
       style="opacity:1;fill:#ffffff;fill-opacity:1;fill-rule:nonzero;stroke:#000000;stroke-width:1.70000005;stroke-linejoin:miter;stroke-miterlimit:4;stroke-dasharray:none;stroke-opacity:1"
       id="path1611"
       sodipodi:cx="185.21321"
       sodipodi:cy="7.601016"
       sodipodi:rx="6.7808862"
       sodipodi:ry="6.5004234"
       d="m 191.9941,7.601016 a 6.7808862,6.5004234 0 0 1 -6.77594,6.500422 6.7808862,6.5004234 0 0 1 -6.78583,-6.4909284 6.7808862,6.5004234 0 0 1 6.76603,-6.5099014 6.7808862,6.5004234 0 0 1 6.79571,6.4814207"
       sodipodi:start="0"
       sodipodi:end="6.2802644"
       sodipodi:open="true" />
    <path
       sodipodi:type="arc"
       style="opacity:1;fill:#ffffff;fill-opacity:1;fill-rule:nonzero;stroke:#000000;stroke-width:1.0629921;stroke-linejoin:miter;stroke-miterlimit:4;stroke-dasharray:none;stroke-opacity:1"
       id="path2395"
       sodipodi:cx="127.16647"
       sodipodi:cy="231.90225"
       sodipodi:rx="4.6991587"
       sodipodi:ry="4.5047979"
       d="m 131.86563,231.90225 a 4.6991587,4.5047979 0 0 1 -4.69573,4.5048 4.6991587,4.5047979 0 0 1 -4.70258,-4.49822 4.6991587,4.5047979 0 0 1 4.68886,-4.51136 4.6991587,4.5047979 0 0 1 4.70943,4.49162"
       sodipodi:start="0"
       sodipodi:end="6.2802644"
       sodipodi:open="true" />
    <path
       sodipodi:type="arc"
       style="opacity:1;fill:#e1ffe1;fill-opacity:1;fill-rule:nonzero;stroke:#000000;stroke-width:1.0629921;stroke-linejoin:miter;stroke-miterlimit:4;stroke-dasharray:none;stroke-opacity:1"
       id="path2397"
       sodipodi:cx="213.95901"
       sodipodi:cy="201.89516"
       sodipodi:rx="4.6991587"
       sodipodi:ry="4.5047979"
       d="m 218.65817,201.89516 a 4.6991587,4.5047979 0 0 1 -4.69572,4.50479 4.6991587,4.5047979 0 0 1 -4.70259,-4.49821 4.6991587,4.5047979 0 0 1 4.68886,-4.51137 4.6991587,4.5047979 0 0 1 4.70943,4.49163"
       sodipodi:start="0"
       sodipodi:end="6.2802644"
       sodipodi:open="true" />
    <path
       sodipodi:type="arc"
       style="opacity:1;fill:#e1e1ff;fill-opacity:1;fill-rule:nonzero;stroke:#000000;stroke-width:1.0629921;stroke-linejoin:miter;stroke-miterlimit:4;stroke-dasharray:none;stroke-opacity:1"
       id="path2399"
       sodipodi:cx="82.50856"
       sodipodi:cy="175.91786"
       sodipodi:rx="4.6991587"
       sodipodi:ry="4.5047979"
       d="m 87.207719,175.91786 a 4.6991587,4.5047979 0 0 1 -4.695727,4.5048 4.6991587,4.5047979 0 0 1 -4.702585,-4.49822 4.6991587,4.5047979 0 0 1 4.688859,-4.51137 4.6991587,4.5047979 0 0 1 4.709433,4.49163"
       sodipodi:start="0"
       sodipodi:end="6.2802644"
       sodipodi:open="true" />
    <path
       sodipodi:type="arc"
       style="opacity:1;fill:#e1e1ff;fill-opacity:1;fill-rule:nonzero;stroke:#000000;stroke-width:1.0629921;stroke-linejoin:miter;stroke-miterlimit:4;stroke-dasharray:none;stroke-opacity:1"
       id="path2401"
       sodipodi:cx="125.11295"
       sodipodi:cy="151.60144"
       sodipodi:rx="4.6991587"
       sodipodi:ry="4.5047979"
       d="m 129.81211,151.60144 a 4.6991587,4.5047979 0 0 1 -4.69573,4.5048 4.6991587,4.5047979 0 0 1 -4.70258,-4.49822 4.6991587,4.5047979 0 0 1 4.68886,-4.51137 4.6991587,4.5047979 0 0 1 4.70943,4.49163"
       sodipodi:start="0"
       sodipodi:end="6.2802644"
       sodipodi:open="true" />
    <path
       sodipodi:type="arc"
       style="opacity:1;fill:#ffffff;fill-opacity:1;fill-rule:nonzero;stroke:#000000;stroke-width:1.0629921;stroke-linejoin:miter;stroke-miterlimit:4;stroke-dasharray:none;stroke-opacity:1"
       id="path2403"
       sodipodi:cx="218.3522"
       sodipodi:cy="123.50089"
       sodipodi:rx="4.6991587"
       sodipodi:ry="4.5047979"
       d="m 223.05136,123.50089 a 4.6991587,4.5047979 0 0 1 -4.69573,4.5048 4.6991587,4.5047979 0 0 1 -4.70258,-4.49822 4.6991587,4.5047979 0 0 1 4.68886,-4.51136 4.6991587,4.5047979 0 0 1 4.70943,4.49162"
       sodipodi:start="0"
       sodipodi:end="6.2802644"
       sodipodi:open="true" />
    <path
       sodipodi:type="arc"
       style="opacity:1;fill:#ffffff;fill-opacity:1;fill-rule:nonzero;stroke:#000000;stroke-width:1.0629921;stroke-linejoin:miter;stroke-miterlimit:4;stroke-dasharray:none;stroke-opacity:1"
       id="path2405"
       sodipodi:cx="165.45071"
       sodipodi:cy="151.07562"
       sodipodi:rx="4.6991587"
       sodipodi:ry="4.5047979"
       d="m 170.14987,151.07562 a 4.6991587,4.5047979 0 0 1 -4.69572,4.5048 4.6991587,4.5047979 0 0 1 -4.70259,-4.49822 4.6991587,4.5047979 0 0 1 4.68886,-4.51136 4.6991587,4.5047979 0 0 1 4.70943,4.49162"
       sodipodi:start="0"
       sodipodi:end="6.2802644"
       sodipodi:open="true" />
    <path
       sodipodi:type="arc"
       style="opacity:1;fill:#c0c0ff;fill-opacity:1;fill-rule:nonzero;stroke:#000000;stroke-width:1.0629921;stroke-linejoin:miter;stroke-miterlimit:4;stroke-dasharray:none;stroke-opacity:1"
       id="path2407"
       sodipodi:cx="166.27121"
       sodipodi:cy="77.569916"
       sodipodi:rx="4.6991587"
       sodipodi:ry="4.5047979"
       d="m 170.97037,77.569916 a 4.6991587,4.5047979 0 0 1 -4.69573,4.504797 4.6991587,4.5047979 0 0 1 -4.70258,-4.498218 4.6991587,4.5047979 0 0 1 4.68886,-4.511366 4.6991587,4.5047979 0 0 1 4.70943,4.491629"
       sodipodi:start="0"
       sodipodi:end="6.2802644"
       sodipodi:open="true" />
    <path
       sodipodi:type="arc"
       style="opacity:1;fill:#ffffff;fill-opacity:1;fill-rule:nonzero;stroke:#000000;stroke-width:1.0629921;stroke-linejoin:miter;stroke-miterlimit:4;stroke-dasharray:none;stroke-opacity:1"
       id="path2409"
       sodipodi:cx="79.963928"
       sodipodi:cy="100.55785"
       sodipodi:rx="4.6991587"
       sodipodi:ry="4.5047979"
       d="m 84.663087,100.55785 a 4.6991587,4.5047979 0 0 1 -4.695727,4.5048 4.6991587,4.5047979 0 0 1 -4.702585,-4.49822 4.6991587,4.5047979 0 0 1 4.688859,-4.511363 4.6991587,4.5047979 0 0 1 4.709433,4.491633"
       sodipodi:start="0"
       sodipodi:end="6.2802644"
       sodipodi:open="true" />
  </g>
</svg>
